Coordinates
version=1
nRows=16
nColumns=40
inDegrees=yes

Units are S.I. units (second, meters, Newtons, ...)
If the header above contains a line with 'inDegrees', this indicates whether rotational values are in degrees (yes) or radians (no).

endheader
time	pelvis_tilt	pelvis_list	pelvis_rotation	pelvis_tx	pelvis_ty	pelvis_tz	hip_flexion_r	hip_adduction_r	hip_rotation_r	knee_angle_r	knee_angle_r_beta	ankle_angle_r	subtalar_angle_r	mtp_angle_r	hip_flexion_l	hip_adduction_l	hip_rotation_l	knee_angle_l	knee_angle_l_beta	ankle_angle_l	subtalar_angle_l	mtp_angle_l	lumbar_extension	lumbar_bending	lumbar_rotation	arm_flex_r	arm_add_r	arm_rot_r	elbow_flex_r	pro_sup_r	wrist_flex_r	wrist_dev_r	arm_flex_l	arm_add_l	arm_rot_l	elbow_flex_l	pro_sup_l	wrist_flex_l	wrist_dev_l
      0.20000000	     16.38323855	     10.94865182	    -10.54404531	      0.00026119	      0.96365620	     -0.22380749	    -18.96993560	    -18.75378014	     -2.18162938	     45.25249501	      0.78980503	     -8.41024359	      0.00000000	      0.00000000	     -0.13203311	     12.95347483	    -12.61102075	     16.95504681	      0.29592139	      5.29468568	      0.00000000	      0.00000000	    -28.96947204	    -16.80150648	      8.56801878	      4.31331110	     -2.29406959	     -3.57105910	     48.02278937	     89.40594048	    -13.58466587	      2.22113082	      3.32899070	     -3.27138268	     19.67960790	     16.45755218	     89.43800384	    -22.27020414	      4.49457177
      0.21000000	     16.21514437	     10.96019744	    -10.85163440	      0.01126112	      0.96478270	     -0.22506522	    -16.72987863	    -18.91122632	     -0.83091108	     48.45714228	      0.84573668	     -9.19584037	      0.00000000	      0.00000000	     -0.83169192	     13.27078630	    -12.54229885	     16.46492908	      0.28736722	      5.79637012	      0.00000000	      0.00000000	    -28.77903227	    -16.87062987	      8.54934377	      4.22309160	     -2.32531027	     -3.28452910	     47.43459749	     89.41148955	    -13.56726764	      2.54779366	      3.76700986	     -3.21274959	     19.78246497	     16.97457501	     89.43745051	    -22.43305711	      4.40859731
      0.22000000	     16.00742848	     10.96951158	    -11.21828353	      0.02205132	      0.96572111	     -0.22609684	    -14.37384602	    -18.96548540	      0.60095714	     51.52547044	      0.89928911	     -9.24265307	      0.00000000	      0.00000000	     -1.48306239	     13.56863683	    -12.55851075	     15.95606790	      0.27848592	      6.28262013	      0.00000000	      0.00000000	    -28.56089189	    -16.94965718	      8.44519241	      4.22981474	     -2.33959503	     -2.90047389	     46.79336894	     89.42046460	    -13.36606195	      2.96364691	      4.11658922	     -3.20636017	     19.49321337	     17.70716784	     89.43979598	    -22.45930833	      4.19239106
      0.23000000	     16.13397502	     10.75143971	    -11.20286749	      0.03276838	      0.96736955	     -0.22751066	    -12.73566614	    -18.66348815	      1.44172700	     54.01090174	      0.94266807	     -8.95490366	      0.00000000	      0.00000000	     -2.67063605	     13.70996690	    -12.00097013	     15.30143716	      0.26706046	      6.66577537	      0.00000000	      0.00000000	    -28.87175471	    -16.65723509	      8.12856475	      4.15130023	     -2.38764365	     -2.70556263	     46.33312277	     89.43030473	    -13.26132448	      3.17424041	      4.64302639	     -3.19195688	     19.50045583	     18.42748033	     89.43976171	    -22.42948367	      4.00374215
      0.24000000	     15.62779242	     10.76624548	    -11.75293282	      0.04303161	      0.96763418	     -0.22808292	     -9.84480136	    -18.51047309	      3.11101537	     56.78076038	      0.99101122	     -7.94237673	      0.00000000	      0.00000000	     -2.88623632	     13.91474914	    -12.53966827	     14.91389552	      0.26029658	      7.08843431	      0.00000000	      0.00000000	    -28.34592701	    -16.78708649	      7.92136373	      4.36230018	     -2.36918063	     -2.03066467	     45.54504544	     89.43634099	    -12.85833892	      3.81500627	      4.80105800	     -3.23359603	     18.37229801	     19.47783164	     89.44587797	    -22.56113364	      3.56602068
      0.25000000	     15.49907443	     10.50810045	    -11.87612347	      0.05329821	      0.96870464	     -0.22911293	     -7.80615719	    -17.98755962	      4.06978849	     58.87300694	      1.02752781	     -6.66304198	      0.00000000	      0.00000000	     -3.68800620	     13.92037877	    -12.36973615	     14.42990721	      0.25184939	      7.43213640	      0.00000000	      0.00000000	    -28.38927188	    -16.48142214	      7.46822505	      4.50359619	     -2.39088872	     -1.51797786	     44.89654089	     89.44290376	    -12.61027261	      4.20398737	      5.10824918	     -3.25881045	     17.53756928	     20.52426204	     89.45143711	    -22.68298605	      3.15720380
      0.26000000	     15.68049429	     10.12054510	    -11.69403583	      0.06358552	      0.97043767	     -0.23044880	     -6.40685065	    -17.32135078	      4.46591441	     60.38369888	      1.05389436	     -5.45932150	      0.00000000	      0.00000000	     -4.93265727	     13.83014913	    -11.89057705	     13.88233627	      0.24229248	      7.59310019	      0.00000000	      0.00000000	    -28.87877004	    -15.94371052	      7.03402447	      4.40382486	     -2.40089119	     -1.53132941	     44.55542142	     89.44470973	    -12.60392704	      4.28464938	      5.79945513	     -3.25756986	     17.61312715	     21.20820049	     89.44566730	    -22.68342540	      2.96220627
      0.27000000	     15.66126635	      9.66998092	    -11.56012042	      0.07384070	      0.97176296	     -0.23149310	     -4.81807618	    -16.47129594	      4.93755347	     61.60060107	      1.07513331	     -3.65268516	      0.00000000	      0.00000000	     -5.95423241	     13.61158614	    -11.44305603	     13.35331454	      0.23305930	      7.82367957	      0.00000000	      0.00000000	    -29.11919351	    -15.38111331	      6.75535597	      4.26456240	     -2.41978181	     -1.49944222	     44.18166550	     89.45216169	    -12.59243672	      4.42305822	      6.43534119	     -3.27829749	     17.49583995	     22.03645982	     89.44734320	    -22.77448546	      2.65549066
      0.28000000	     15.58186992	      9.23357344	    -11.41741178	      0.08405230	      0.97290697	     -0.23260198	     -3.20493828	    -15.62181108	      5.28219192	     62.46560068	      1.09023040	     -1.82374256	      0.00000000	      0.00000000	     -6.86034057	     13.38154616	    -11.14616747	     12.92458286	      0.22557653	      8.07501126	      0.00000000	      0.00000000	    -29.27446947	    -14.76380640	      6.46692959	      4.13153440	     -2.43415609	     -1.52778141	     43.79583620	     89.45792877	    -12.59935597	      4.56632222	      7.05573909	     -3.26732624	     17.24248372	     22.87672219	     89.45106751	    -22.93020828	      2.29643570
      0.29000000	     15.27938658	      8.76754216	    -11.31741122	      0.09417211	      0.97364117	     -0.23381755	     -1.34960946	    -14.71704130	      5.58251694	     63.03676076	      1.10019903	      0.07920030	      0.00000000	      0.00000000	     -7.43241890	     13.06134024	    -11.06904865	     12.67901804	      0.22129061	      8.54431425	      0.00000000	      0.00000000	    -29.23529914	    -14.09022869	      5.47239856	      4.54275115	     -2.45732575	     -0.57756856	     42.85881109	     89.45407399	    -12.47061935	      4.95594680	      6.99786906	     -3.28687735	     15.21506227	     24.36636196	     89.46032294	    -23.87209916	      1.04766636
      0.30000000	     15.22865508	      8.24716518	    -11.00036141	      0.10441464	      0.97480370	     -0.23498690	     -0.02141108	    -13.74744229	      5.55537291	     63.06643775	      1.10071699	      1.68786572	      0.00000000	      0.00000000	     -8.39018851	     12.69523101	    -10.65874933	     12.28070954	      0.21433882	      8.82681704	      0.00000000	      0.00000000	    -29.46719493	    -13.33766991	      5.16974568	      4.28192107	     -2.45515281	     -0.85537774	     42.57112731	     89.45343856	    -12.60730848	      4.93167745	      7.70485071	     -3.26536547	     14.97793557	     25.22790053	     89.46309089	    -24.01149313	      0.79013106
      0.31000000	     15.11686036	      7.75331061	    -10.72545538	      0.11461365	      0.97580570	     -0.23616960	      1.31557532	    -12.81863286	      5.49827285	     62.68073057	      1.09398513	      3.04100017	      0.00000000	      0.00000000	     -9.28486520	     12.35613571	    -10.19204680	     11.82085144	      0.20631278	      9.02775954	      0.00000000	      0.00000000	    -29.61820162	    -12.60083024	      4.90395584	      4.03310475	     -2.45726628	     -1.18493900	     42.25328984	     89.44862924	    -12.74118463	      4.92174410	      8.37675553	     -3.24395900	     14.76861336	     26.18288977	     89.45862479	    -24.16430859	      0.49636532
      0.32000000	     15.18068883	      7.08838033	    -10.10406075	      0.12498093	      0.97708305	     -0.23785080	      2.19426326	    -11.79250470	      4.94009359	     61.85713008	      1.07961059	      4.03357221	      0.00000000	      0.00000000	    -10.39747488	     11.79052991	     -9.56734407	     11.48324354	      0.20042041	      9.46443479	      0.00000000	      0.00000000	    -30.02065110	    -11.52303409	      4.27008999	      3.83795352	     -2.46535427	     -1.44601443	     41.90075370	     89.44844633	    -12.95149536	      4.81351440	      8.93891726	     -3.20152051	     14.17492921	     27.28950426	     89.47013428	    -24.49871471	      0.02711742
      0.33000000	     15.14500423	      6.54938172	     -9.62317625	      0.13542569	      0.97800463	     -0.23928193	      3.18389541	    -10.89341689	      4.52077684	     60.73709927	      1.06006236	      4.92174931	      0.00000000	      0.00000000	    -11.39741818	     11.34627934	     -8.99654441	     11.04811075	      0.19282591	      9.76147239	      0.00000000	      0.00000000	    -30.24642365	    -10.64454283	      3.83378040	      3.56014851	     -2.47715466	     -1.76647999	     41.54275141	     89.44574825	    -13.16874268	      4.70884415	      9.52203169	     -3.15659156	     13.66765501	     28.41866292	     89.47543403	    -24.73530964	     -0.30027444
      0.34000000	     15.14020334	      6.02177207	     -9.08257538	      0.14593417	      0.97887040	     -0.24076594	      4.02410999	    -10.05784025	      3.97495688	     59.25165191	      1.03413641	      5.47179976	      0.00000000	      0.00000000	    -12.45859250	     10.89577977	     -8.35545407	     10.55066029	      0.18414376	     10.02298718	      0.00000000	      0.00000000	    -30.48438366	     -9.72796468	      3.31466256	      3.30945501	     -2.47323490	     -2.08570554	     41.14572992	     89.44124717	    -13.41199230	      4.56879304	     10.05542004	     -3.14358574	     13.18518846	     29.65267882	     89.47908507	    -24.87056237	     -0.55214657
      0.35000000	     15.04456684	      5.60264830	     -8.64425550	      0.15647866	      0.97931187	     -0.24210235	      4.96433708	     -9.36029833	      3.49704146	     57.56248940	      1.00465497	      5.94144939	      0.00000000	      0.00000000	    -13.37925900	     10.54648962	     -7.87444733	     10.07093467	      0.17577097	     10.35179760	      0.00000000	      0.00000000	    -30.57215031	     -8.96364091	      2.99688095	      2.92922538	     -2.46613836	     -2.60517404	     40.85291764	     89.43686218	    -13.63156044	      4.43708382	     10.63240354	     -3.10729390	     12.78129988	     30.90151854	     89.48307272	    -24.90448782	     -0.71072129
